<svg xmlns="http://www.w3.org/2000/svg" viewBox="0 0 569.518 160.558"><defs><style>.d{fill:#040000}.f{fill:#fff}</style></defs><g id="b"><g id="c"><path d="M114.25 59.91c3.326-1.147 7.742-3.274 9.19-1.094 1.454 2.18.614 3.877-.244 4.84-.84.963-3.318 3.808-3.685 5.025-.36 1.208-.604 3.326.971 2.897 1.572-.42 2.294-1.2 3.388-.175 1.085 1.033 3.265 3.878 2.959 8.596-.303 4.718-1.322 10.767-4.115 16.579-2.783 5.813-9.803 16.702-16.933 22.269-7.138 5.567-15.446 10.723-22.518 13.909-7.502 3.387-20.816 7.502-32.905 8.35-12.106.85-24.57-.848-33.761-5.199-8.47-4-16.597-12.71-16.597-21.664s3.195-16.684 6.906-21.298c3.996-4.963 14.64-11.615 26.628-14.285 11.975-2.652 40.774-6.04 45.737-7.502 4.959-1.453 16.702-5.681 20.453-6.775 3.75-1.085 10.657-3.142 14.526-4.473Z" style="fill:#38a9c5"/><path d="M116.767 13.088c-2.01-1.19-9.599.735-13.897 2.1-4.298 1.375-16.46 7.047-18.934 8.133-2.468 1.103-7.772 4.385-9.322 5.13-1.558.726-1.558-.193-1.558-.193.731-.727 7.93-8.01 10.062-9.69 2.56-2.005 5.576-3.738 9.502-6.575 3.93-2.844 7.151-5.48 8.696-7.86 1.826-2.836-.1-3.939-2.472-4.123-2.372-.184-10.233 2.197-15.726 4.482S65.738 14.55 63.008 16.65c-2.758 2.101-5.494 5.034-6.785 6.583-1.269 1.558-2.923 4.937-4.385 5.488-1.077.4-3.046 1.205-4.775 2.185 2.056 1.06 3.636 2.84 3.694 5.377.081 3.239-.465 6.722-2.551 9.037-2.082 2.322-4.71 4.636-7.798 4.089-2.45-.422-4.635-1.682-5.872-3.524-.522.607-.98 1.092-1.343 1.394 0 0-4.482 2.827-6.32 4.298-1.825 1.461-2.6 5.217-1.182 10.784 1.462 5.76 4.513 8.42 8.683 9.874.676.233 1.32.48 1.958.728-1.194.935-2.543 2.58-3.367 3.972-.954 1.61-1.129 4.43-1.129 4.43s2.333 4.744 7.493 5.698c4.328.801 11.179 1.098 15.825.252 1.072 1.345 2.465 2.436 3.525 3.232 1.921 1.435 8.258 2.757 8.258 2.757 2.044 4.07 7.205 4.674 11.756 2.03 3.852-2.213 5.874-7.186 5.147-12.928-.722-5.76-7.2-7.913-7.2-7.913 1.347-4.007.057-7.03-.991-8.642.049-.034.103-.069.151-.103 6.123-4.297 9.507-15.178 9.879-17.462.359-2.285-.189-5.218-.189-5.218s3.384-1.55 5.406-3.93c1.321-1.567 6.298-6.854 7.405-7.677 1.085-.823 5.847-3.291 9.138-5.663 3.292-2.372 4.299-3.02 7.318-5.952 3.02-2.924 4.018-5.568 2.01-6.758ZM73.582 46.289c-1.139 6.294-3.205 10.347-8.225 11.258-4.468.796-8.407-.91-10.285-2.784-1.873-1.873-4.11-5.016-3.155-8.78.674-2.582 2.485-6.232 6.118-8.587 3.388-2.188 5.681-2.967 9.804-1.392 2.154.814 6.898 3.992 5.743 10.285Z" style="fill:#ef7d1b"/><path class="d" d="M161.86 35.523s.127 15.458 0 17.76c-.158 2.68-.57 7.493-4.018 11.599-3.458 4.114-6.307 4.744-6.307 4.744l.136-5.042c2.897-1.339 4.543-4.613 5.352-6.617.828-2.005 1.112-5.357 1.112-8.185v-14.19l3.725-.07Zm8.7.07v11.222c0 2.748.22 10.408 1.848 13.97 1.64 3.572 3.948 7.502 8.184 8.841l.149-4.823s-2.609-1.34-3.725-3.493c-1.111-2.153-2.595-6.617-2.744-10.04-.153-3.414-.223-14.338-.223-15.747l-3.489.07Zm12.404 19.03s2.836-.07 5.279-.595c2.45-.526 4.394-2.162 5.575-3.125 1.195-.963 2.758-2.005 2.758-2.005v20.29h3.786V45.257s4.398-3.948 5.948-4.762c2.004-1.033 4.018-.368 4.018-.368v-4.604s-1.716-.447-4.395.446c-2.38.788-6.232 4.526-9.068 6.977-2.82 2.45-5.865 5.068-8.027 6.1-2.145 1.043-5.804 1.043-5.804 1.043l-.07 4.534Zm30.637-13h22.523s-.08 5.113-.153 6.978c-.07 1.864-.749 7.65-3.567 11.213-2.854 3.615-6.163 4.692-8.548 5.217-2.372.516-6.613.446-6.613.446v4.15s4.24.603 10.03-1.182c5.805-1.778 9.148-6.618 10.698-9.962 1.558-3.343 1.715-9.357 1.785-11.51.08-2.154 0-9.665 0-9.665h-26.089l-.066 4.316Zm21.49-5.068h3.182v-4.604h-3.13l-.052 4.604Zm3.633.08h2.967V31.95h-2.898l-.07 4.684Zm7.659 18.583h3.641V35.593h-3.57l-.071 19.625Zm19.253-2.819c0 2.6-.372 6.382-1.939 9.13-1.562 2.749-5.046 3.274-7.06 3.344-2.013.079-5.282.079-5.282.079v4.315s2.84.385 7.813-.236c5.615-.709 6.98-3.633 8.468-6.46 1.484-2.827 1.563-8.106 1.563-10.776s.07-16.43.07-16.43l-3.633.08v16.954Zm10.771-10.416 2.907 11.747h3.57l-3.124-11.817-3.353.07Zm6.618-.07 3.204 11.747h3.483l-3.265-11.747h-3.422Zm13.24.07s-.233 7.659-.976 10.854c-.67 2.906-2.754 8.176-6.688 10.032-3.94 1.856-6.618 2.004-6.618 2.004v4.394s3.081-.324 5.366-1.27c3.037-1.26 6.81-3.544 9.055-7.58 2.08-3.72 3.051-8.91 3.191-11.816.157-2.898.079-6.688.079-6.688l-3.41.07Zm12.556 27.354 3.712-.218V50.237l19.48 1.419V47.26l-19.48-1.488V34.105h-3.712v35.232ZM325.83 32.25v4.534h3.13v-4.534h-3.13Zm3.659.149v4.385h2.968v-4.385h-2.968ZM340.56 51.27c0 1.567.805 3.87 3.86 3.87 3.055 0 3.72-2.373 3.72-3.87 0-1.488-.971-3.711-3.86-3.711-2.608 0-3.72 2.162-3.72 3.711Zm17.835 17.849s5.046.297 9.738-.456c4.679-.744 8.246-3.291 10.706-6.022 2.678-2.967 3.948-8.473 4.232-10.915.302-2.46.223-8.027.223-8.027h-3.484c0 3.79.14 10.101-3.273 15.152-2.442 3.615-6.242 4.692-8.552 5.287-2.311.587-5.944.587-5.944.587V35.672h-3.576l-.07 33.447Zm29.14-32.642-.07 4.245h10.92v-4.306l-10.85.06Zm-.07 15.17 11-.07V47.34h-10.93l-.07 4.307Zm22.076-9.883s0 6.985-.078 9.436c-.079 2.46.079 7.283-2.372 9.813-2.456 2.53-5.13 3.335-8.706 3.414-3.562.079-10.85.079-10.85.079v4.534s3.708-.08 5.72-.08 6.933.255 9.822-.515c3.86-1.051 6.417-3.37 8.027-6.163 1.935-3.352 1.856-7.59 1.935-10.338.07-2.748.07-10.25.07-10.25l-3.567.07Zm-1.339-9.288v4.683h3.05v-4.612l-3.05-.07Zm3.725 0v4.683h2.959v-4.683h-2.96Zm6.985 15.538h4.981l2.74 21.323h3.571l-2.6-21.323h11.38c0 2.74-1.418 5.348-2.53 6.311-1.112.963-4.158 1.926-4.158 1.926v4.245s1.462-.052 4.666-1.715c4.166-2.154 5.138-7.055 5.506-9.06.385-2.005.372-5.953.372-5.953h-15.678l-.748-4.157h-3.423l.377 4.236h-4.456v4.167Zm28.913 1.033v4.683h26.842v-4.683h-26.842Zm32.488-12.859v4.307h23.11v-4.386l-23.11.08Zm-1.86 10.705v4.377h22.82s.293 2.53-.446 4.98c-.744 2.452-2.083 6.995-7.064 7.95-4.98.97-10.776.752-10.776.752v4.236s4.377.228 6.758.08c2.39-.15 7.961-.613 10.854-3.878 2.902-3.266 3.79-6.382 4.171-10.172.372-3.79.512-8.325.512-8.325h-26.829Zm31.066-9.812-.07 4.613h12.114l.07-4.613H509.52Zm22.006 4.98s.079 7.721-.07 9.437c-.153 1.707-.604 5.943-2.976 8.622-2.372 2.679-5.139 4.386-9.147 4.605-4.01.227-9.656.078-9.656.078v4.464s7.72.22 10.4-.079c2.678-.297 7.423-1.338 10.18-4.604 2.757-3.274 4.25-6.994 4.692-10.784.446-3.79.14-11.739.14-11.739h-3.563Zm11.45-8.026V69.04l3.72.07V50.308l19.625 1.12v-4.316l-19.555-1.558v-11.45l-3.79-.07Zm17.016-1.935v4.683h3.125V32.1h-3.125Zm3.65.07v4.613h3.038l.079-4.753-3.116.14Zm-189.809 75.096c-.236.683-.45 1.41-.123 2.38.324.964 2.784.964 3.716.964.92 0 1.887-.884 2.088-1.366.206-.49 1.287-3.799 1.536-4.315.241-.534.512-.78 1.808-.85 1.453-.087 1.295.605 1.094 1.489-.197.893-3.471 10.732-3.755 11.66-.28.936-.797 1.129-1.322 1.207-.53.088-6.898.692-7.388.736-.482.035-1.61.324-2.013 1.409-.398 1.085.157 1.777 1.046 1.89.888.123 4.884-.393 6.21-.393 1.34 0 1.664.394 1.418 1.321-.166.648-.849 2.863-1.133 3.79-.284.929-.162 1.497.53 1.988.682.472 4.07.28 4.884.236.805-.043 1.199-.603 1.637-1.287.45-.682 1.392-3.711 1.698-4.805.324-1.086.814-1.777 1.339-2.049.517-.288 4.237-.656 5.121-.814.888-.166 1.138-1.216 1.173-1.812.039-.612-.683-1.54-1.287-1.461-.608.079-3.2.201-3.712.245-.533.044-.376-.57-.25-1.086.12-.525 3.472-10.976 3.665-11.545.21-.56.735-.71 1.33-.797.8-.131 1.015.315.858 1.085-.166.77-1.9 6.128-2.188 6.942-.28.805-.193 1.243 0 1.856.21.604 4.035.516 5.138.437 1.085-.078 1.926-3.107 2.328-4.438.411-1.322 1.423-4.385 1.606-4.954.206-.57.451-.692 1.59-1.016 1.129-.314 1.4.57 1.163 1.217-.24.648-9.392 20.85-9.685 21.499-.285.647-.197 1.129.363 1.409.578.28 2.871.289 3.799.21.928-.079 1.134-.569 1.366-1.015.245-.447 9.449-20.895 9.803-21.788.368-.892 1.576-1.733 1.94-1.575.371.166.371.779.153 1.418-.202.647-9.231 21.262-9.511 22.023-.293.762.118 1.095.477 1.13.372.043 2.626.201 3.597.201.968 0 1.375-.648 1.65-1.252.294-.604 9.152-21.017 9.406-21.664.236-.63.735-.999.919-.885.206.123.206.49 0 1.26-.21.762-6.85 20.808-7.09 21.893-.245 1.094.36 1.295.77 1.34.399.043 3.663.035 4.307 0 .648-.036.84-.525 1.208-1.419.363-.893 7.475-22.689 7.904-24.684.49-2.224-1.2-2.906-2.407-2.906-1.217 0-18.32.122-19.17.078-.85-.026-.77-.481-.77-.761s.446-1.576.656-2.381c.193-.806-.21-1.085-.849-1.252-.647-.158-3.641-.122-4.486-.122-.84 0-1.002.49-1.252 1.129-.24.647-.849 2.582-1.238 2.95-.403.359-1.454.437-1.909.157-.446-.28.285-2.136.49-2.827.197-.683-.41-1.164-.848-1.243-.447-.088-4.036-.122-5.003-.122s-1.493.97-1.65 1.61c-.166.648-.735 1.97-1.007 2.302-.284.315-1.575.446-2.346.359-.77-.08-.153-1.733.08-2.451.244-.735-.202-1.339-.723-1.62-.53-.28-3.182-.166-3.83-.078-.643.088-1.129.665-1.737 1.698-.53.884-2.941 8.824-3.182 9.515Zm77.293-5.733c-1.134 1.172-5.454 5.26-5.891 5.768-.604.683-.46 2.232.35 2.504.98.332 3.764.236 4.928.236 1.169 0 3.064-.149 3.668-.192.604-.044 1.418-.727 1.807-1.217.416-.482 8.364-10.12 8.767-10.6.394-.491.805-1.296.77-1.577-.04-.288-.617-1.208-1.378-1.251-.771-.035-4.758.079-5.773.122-1.007.035-1.331.245-1.926.762-.604.525-4.197 4.28-5.322 5.445Zm3.948 11.466c-.762.56-10.741 11.975-11.332 12.623-.608.64-1.413 1.05-1.492 2.022-.08.963.849 1.322 1.803 1.322.963 0 31.464-2.18 33.29-2.337 1.803-.167 2.021.56 2.371 1.251.49.929 1.41 1.007 2.014 1.007.617 0 4.836.228 5.812-.122 1.497-.517 1.133-2.303.972-2.82-.158-.524-6.246-12.149-6.854-12.91-.604-.771-1.016-1.05-1.698-1.173-.683-.114-4.885-.123-6.163 0-1.3.114-1.22.927-.901 1.855.328.928 2.503 5.489 3.194 6.942.683 1.453-.367 1.532-1.015 1.62-.63.078-16.535 1.303-17.734 1.4-1.007.079-1.007-.56-.604-1.077 0 0 6.84-7.79 7.449-8.561.604-.77-.193-1.777-.84-1.978-.644-.201-4.36-.158-5.646-.079-1.296.079-1.856.447-2.626 1.015Zm18.557-15.3c.359 1.181 5.97 9.61 6.574 10.582.608.963 1.252 1.243 1.899 1.401.64.167 7.139.131 8.027.044.683-.062.683-1.252.403-1.69-.29-.446-7.467-10.337-8.115-11.266-.652-.927-1.978-1.444-2.573-1.523-.604-.087-4.329 0-5.209.036-1.006.043-1.278 1.558-1.006 2.416Zm-289.135 9.663c-1.567 0-1.567 1.279-1.755 1.996-.17.736.302.91.976.91.657 0 6 .175 7.025.062 1.142-.114 1.072-.42 1.562-1.27.49-.849-.175-1.627-.963-1.627-.783 0-5.816-.07-6.845-.07Zm5.874 7.817c.481-.787-.053-1.33-.49-1.462-.42-.114-6.102-.114-7.003-.114-.915 0-1.217.053-1.882.963-.665.91-.306 1.69.429 1.76.726.061 5.921.061 7.002.113 1.095.062 1.453-.48 1.944-1.26m-16.4-6.18c.364-.665.24-1.453-.363-1.514-.604-.052-5.987-.175-7.195-.175-.85 0-1.095 0-1.633 1.085-.547 1.085-.31 1.82.42 1.82h7.384c1.024 0 1.024-.55 1.387-1.216m-3.134 7.204c.42 0 1.011-.306 1.011-1.27 0-.97-.358-1.277-1.137-1.33-.792-.06-5.69-.122-6.54-.122-.73 0-1.093.42-1.391 1.147-.306.726-.42 1.444.24 1.575 1.151.236 7.384 0 7.817 0m16.575-15.012c-1.156.061-1.934.061-2.18.543-.245.49-1.58 2.363.246 2.425 1.807.06 14.092-.184 15.296-.062 1.221.123 2.25.727 1.76 2.302-.477 1.576-3.204 10.53-3.633 11.432-.42.91-.901 1.76-2.718 1.821-1.816.061-4.298 0-4.84 0-.552 0-1.821.061-1.09 1.086.726 1.032 4.652 5.69 5.265 6.416.6.726.722 1.698-.241 1.812-.967.122-6.42 0-7.388-.061-.963-.053-1.383-.298-1.991-1.025-.604-.726-5.147-6.293-5.567-6.714-.43-.428-1.034-.849-1.453.298-.421 1.156-1.874 5.567-2.123 6.119-.24.542-.784 1.322-1.93 1.322-1.156 0-4.543-.053-5.327-.176-.792-.122-1.212-.665-.976-1.881.254-1.208 1.453-4.587 1.637-5.2.188-.604.061-1.873-.78-1.033-.857.85-7.203 6.723-7.746 7.204-.547.482-.906.91-1.886.91-.954 0-7.252.123-8.21-.122-.981-.245-1.458-.543-.434-1.514 1.024-.972 6.048-5.69 6.722-6.233.661-.543.727-1.27-.183-1.27-.911 0-3.03-.113-3.58-.305-.535-.176-1.2-.543-.845-1.874.372-1.33 3.27-11.134 3.628-12.044.367-.902 1.156-1.331 2.061-1.331.91 0 14.947-.035 15.796-.123 1.204-.113 2.302-2.722.482-2.835-1.821-.123-12.045 0-13.494 0-1.444 0-3.628.174-3.444-1.095.174-1.27.778-1.663 2-1.663 1.212 0 14.215-.21 15.24-.21 1.028 0 1.702.114 1.991-.727.315-.849.609-2.057 1.453-2.118.858-.061 5.873-.061 6.477 0 .609.061 1.099.727 1.099 1.217 0 .473-.608 1.567.477 1.628 1.094.061 14.89.114 15.914.184 1.024.06 1.208 2.477-.6 2.784-1.825.297-13.738.06-14.885.113m81.7-2.836c-.32.035-.643 1.2-.801 1.934-.166.718.324 1.007 1.042 1.042.482.035 6.618.123 7.668 0 1.05-.114 1.243-1.042 1.41-1.453.166-.402.284-.963-.478-1.33-.775-.36-6.096-.28-6.898-.28-.818 0-1.623.043-1.943.087Zm-7.821 24.483c-.04-.367-.972-4.315-1.06-4.805-.078-.482-.594-1.095-1.286-1.208-.683-.114-8.968-.377-9.887-.28-1.16.114-1.562.718-1.764 1.094-.21.359-1.781 5.156-1.947 5.97-.154.805.406.997 1.02.997.603 0 13.467-.603 14.162-.682.683-.088.802-.736.762-1.086Zm-12.185-10.363c-.206.726.372 1.006.972 1.05.394.017 7.292.078 8.014-.044.73-.123.888-.56.774-1.34-.043-.314-.398-1.969-.569-2.66-.166-.683-.761-1.287-1.321-1.33-.368-.027-4.452-.08-5.213-.114-.722-.044-1.16.358-1.405.76-.245.395-1.103 3.117-1.252 3.678m26.427-7.467s.639.113.564.638c-.087.535-.485 1.454-.888 1.865-.412.403-.691.604-1.453.604-.762 0-5.366-.131-5.896-.044-.529.08-1.492.158-1.16 1.453.311 1.296 3.905 17.262 4.062 18.12.167.84.21 1.567-.84 1.645-1.05.08-5.733.08-6.224.08-.472 0-.963-.482-1.033-.963-.087-.49-.122-1.62-1.698-1.497-1.575.122-34.764 1.698-35.898 1.698-1.138 0-1.663-.963-1.3-1.9.241-.612 4.075-12.018 4.408-12.71.32-.682.639-.805 1.16-.84.53-.044 5.645.035 5.645.035.53 0 .57.805.412 1.418-.17.595-2.832 8.788-2.99 9.314-.166.525-.244 1.287.246 1.33.473.044 2.372-.078 2.95-.323.555-.246.875-.561 1.243-1.489.359-.936 4.648-13.716 4.84-14.443.206-.718-.052-1.129-.814-1.129-.761 0-9.353.035-9.637-.28-.285-.324-.363-.972-.08-1.733.286-.77.727-1.06 1.537-1.06 1.326 0 22.956.21 23.551.167.613-.035.64-.411.613-.998-.053-.613-.285-2.591-1.366-2.67-1.094-.079-20.955-.21-21.393-.21-.45 0-1.68-.157-.998-1.768.569-1.357 1.147-1.173 1.655-1.19 1.024-.035 18.294-.062 19.021-.062.718 0 1.532-.201 1.584-.683.062-.481-.052-1.575.727-1.637 1.138-.078 5.852-.096 6.495-.06.648.043.958.647 1.16 1.33.205.683 1.418 6.17 1.57 6.617.172.447.579 1.296 1.393 1.33.8.045 8.832.045 8.832.045m55.138-4.237c-.893.044-1.09.91-1.13 1.698-.026.464.031.71.473.814.534.14 1.19.263 1.501.403.363.175.399.437.237 1.155-.158.727-2.902 7.625-3.664 9.725-.761 2.101-4.971 12.79-5.243 13.472-.289.683.272 1.217 1.042 1.374.761.158 3.51.044 4.525.044 1.007 0 1.73-1.173 2.136-2.18.394-1.006 4.477-11.178 5.081-12.91.609-1.743 3.428-8.64 3.751-9.525.324-.875 1.007-1.129 1.895-1.164.89-.044 1.003.604.89 1.532-.128.919-2.093 7.668-3.03 10.688-.919 3.029-2.862 9.646-3.098 10.416-.25.762-.578 1.567.07 2.653.643 1.094 4.56.604 5.606.367 1.055-.245 1.664-2.057 2.07-3.387.394-1.34 3.821-13.192 4.386-14.925.578-1.742 2.46-8.394 2.424-8.963-.039-.56-1.041-1.287-1.61-1.33-.569-.036-6.46.043-7.024 0-.565-.036-.565-.684-.605-.963-.039-.29.77-2.224.976-2.828.193-.604-.052-.928-.682-1.05-.648-.123-4.447-.202-5.13-.158-.687.035-1.173.236-1.3.683-.118.446-1.16 2.538-1.523 3.466-.166.411-.284.884-1.212.85-.412-.01-.928 0-1.812.043Zm-13.358 7.51c-.412.193-.683 1.12-.683 1.76 0 .647 1.086.814 1.856.49.762-.315.928-1.698.722-2.18-.127-.314-1.396-.332-1.895-.07Zm0 7.502c.525-.324.49-1.462.324-1.707-.166-.227-1.8-.201-2.171.167-.35.358-.499 1.155-.048 1.593.442.446 1.37.262 1.895-.053m-9.274-5.41c1.125-.288 1.133-2.144 1.01-2.336-.122-.202-1.408-.167-1.89-.132-.486.044-.902.788-1.007 1.663-.105.867.762 1.086 1.887.805m-1.445 5.41c.802-.446.591-1.786.434-1.934-.153-.166-1.274-.333-2.057.227-.595.455-.657 1.524-.36 1.786.394.359 1.174.359 1.983-.079m21.648-20.098c.49 0 .932.963.569 1.733-.364.77-.53 1.05-1.081 1.05-.578 0-6.784-.113-7.467.246-.692.367-1.055 1.768.04 1.777 1.036.017 6.367.157 6.976.201.608.035.889.56.53 1.366-.368.805-.329 1.173-1.174 1.208-.849.052-6.617-.08-7.352.087-.718.158-1.279.613-1.235 1.086.036.49-.18.849.517.849.691 0 5.68.043 6.302.043.604 0 2.049.718 1.73 2.381-.25 1.287-2.592 8.631-2.903 9.28-.332.647-1.173 1.733-2.836 1.846-1.65.123-5.637-.035-6.162.044-.53.088-1.173.49-1.26 1.33-.062.64-.031 1.139.73 1.217.766.079 5.572-.078 6.176.035.604.123 1.251.49 1.059 1.217-.21.717-.543 1.532-1.637 1.532-1.072 0-6.049.078-6.521.078-.49 0-1.213.36-1.34 1.13-.122.761-.2 1.12.692 1.173.88.035 6.097.078 6.534.078.451 0 1.252.202.81 1.287-.446 1.086-.731 1.33-1.698 1.41-.963.087-8.22.043-10.845.043-2.63 0-11.765-.052-12.505-.236-.626-.158-.53-.736-.205-1.54.284-.683.568-1.042 1.251-1.042.691 0 6.014-.132 6.775-.132.762 0 .98-.394 1.182-1.12.188-.736 0-1.173-.73-1.173-.723 0-6.133.122-6.623.044-.477-.08-.85-.342-.359-1.497.263-.639.644-1.34 1.252-1.287.604.035 6.014-.053 6.735-.122.723-.088 1.37-.412 1.327-1.375-.035-.971-.28-.971-.845-.971-.569 0-4.232-.035-5.116-.36-.893-.323-2.193-.76-1.55-2.74.5-1.54 2.915-9.041 3.283-9.68.35-.657.761-1.05 1.733-1.05h6.609c.608 0 .849-.526.928-1.008.088-.49-.114-.971-.762-.936-.648.044-6.136-.035-6.573-.079-.451-.035-.731-.438-.451-1.532.284-1.085.53-1.129 1.142-1.129.6 0 6.403.088 6.801.088.412 0 1.05-.368 1.164-1.138.132-.762.171-1.2-.831-1.173-1.015.043-5.685-.035-6.175-.035-.477 0-.85-.412-.36-1.453.478-1.05.92-.963 1.484-.928.81.052 21.595-.114 22.265-.123m210.42 3.957c-.08.28-.451.726-.727 1.251-.28.526-.692.604-1.055.604-.359 0-5.852-.043-6.57 0-.726.036-1.177.482-1.41 1.05-.244.561 0 1.13.561 1.209.574.079 5.887.079 6.298.044.399-.044 1.042-.044.92.753-.119.814-.766 1.015-1.33 1.015-.557 0-5.805.122-6.535.122-.727 0-1.095.123-1.366.806-.289.683.035 1.129.639 1.129.613 0 8.753.122 10.846.166 2.1.044 13.878-.079 14.88-.079 1.016 0 1.016-1.697.78-1.9-.246-.2-7.091-.166-7.633-.122-.517.036-1.121-.078-1.16-.849-.04-.761.761-.971 1.453-1.006.682-.044 6.206-.035 7.13-.08.94-.043 1.098-.244 1.531-.927.455-.683-.192-1.173-.718-1.252-.525-.079-7.462-.079-7.79-.043-.324.043-.241-.92-.276-1.331-.04-.403.057-.762-.727-.884-.792-.114-5.606-.201-6.398-.201-.78 0-1.27.245-1.344.525Zm19.611-1.882h-27.779c-2.17 0-2.591.761-3.011 1.672-.429.91-7.606 22.54-8.303 24.36-.691 1.812.07 2.443.976 2.653.902.21 26.593.14 28.34.14 1.737 0 2.088-1.26 2.507-1.882.42-.63 7.887-23.18 8.522-24.921.635-1.75-.346-2.022-1.252-2.022Zm6.771-3.213c1.602.132 4.175.692 3.475 3.064-.499 1.733-9.834 29.736-10.246 30.436-.42.7-.77 1.68-2.45 1.68-1.673 0-42.367.07-43.352 0-.968-.079-2.644-.7-2.092-2.652.56-1.952 9.769-29.385 10.259-30.716.499-1.321.976-1.812 3.282-1.812 2.442 0 39.513-.14 41.124 0M544.7 111.38c-.552-.079-8.622 0-9.27 0-.924 0-1.26.805-1.374 1.41-.118.603.403.69.893.69.477 0 6.736.08 7.418.08.687 0 1.572 0 2.14-.123.56-.122.683-1.252.762-1.532.079-.28 0-.446-.57-.525Zm7.79-1.768c.683.035 1.007.805.85 1.444-.167.648-.893 3.388-1.213 3.835-.32.437-.84.638-1.57.682-.723.044-3.428 0-3.957.088-.53.078-1.292.2-.84 1.05.437.84.529 1.602 1.369 1.803.622.158 2.705-1.138 2.937-1.251.45-.193 1.418.41 1.453 1.015.044.604.079 1.13-.359 1.497-.438.359-1.738 1.286-2.022 1.444-.271.157-.403.727-.157 1.138.236.403.98 1.847.813 2.17-.166.333-.49.649-1.78.684-.88.035-4.032.096-4.61-.237-.555-.324-.555-.157-.88-.761-.319-.604-3.982-7.353-4.231-7.712-.241-.359-.535-.718-1.05-.718-.841 0-1.213 1.768-1.576 2.862-.36 1.077-.955 2.662-.683 2.942.284.28 1.251.192 2.127.157 1.099-.043 2.503.053 2.32 1.296-.206 1.251-.617 1.287-1.428 1.374-.792.079-3.995.315-6.087.359-2.088.044-8.067.324-8.916.28-.84-.044-2.17-.236-1.934-.92.245-.69.324-1.654 1.094-1.706.761-.035 3.838-.035 4.28-.114.438-.079.955-.236 1.2-.937.245-.682.647-1.4.2-1.689-.445-.28-1.57.245-2.253.604-.683.368-1.816 1.138-2.543.893-.429-.149-1.208-1.383-.727-2.101.408-.612 1.248-1.006 2.136-1.41.893-.41 1.817-.927 1.777-1.33-.035-.402-1.304-.647-1.365-1.34-.088-.883.84-4.07 1.243-4.594.411-.526.578-.876 1.619-.929 1.046-.034 24.08.088 24.764.132M157.998 85.804c2.383-.473 4.082-2.075 5.724-3.624 1.853-1.749 3.603-3.4 6.274-3.4 2.224 0 3.555 1.332 5.239 3.02 1.926 1.928 4.108 4.114 7.917 4.114 3.997 0 6.187-2.093 8.12-3.939 1.77-1.69 3.298-3.151 6.214-3.151 2.837 0 4.132 1.337 5.772 3.03 1.738 1.793 3.9 4.025 8.124 4.025 3.451 0 5.587-1.97 7.471-3.709 1.931-1.781 3.6-3.32 6.653-3.32 1.403 0 2.7.651 4.342 1.476 2.022 1.015 4.537 2.277 8.106 2.638 3.22.328 45.084.42 124.424.273 3.468-.007 5.715-.01 6.36-.01 5.625 0 8.767-2.336 11.29-4.213 1.864-1.385 3.215-2.368 5.108-2.302 1.466.069 2.895 1.025 4.549 2.131 2.201 1.473 4.696 3.143 8.238 3.49 4.42.451 163.21-.249 169.968-.28a1.634 1.634 0 0 0-.008-3.268h-.007c-57.182.254-166.22.645-169.627.296-2.732-.268-4.773-1.633-6.747-2.954-1.887-1.263-3.838-2.569-6.218-2.68-3.062-.126-5.169 1.43-7.205 2.944-2.359 1.754-4.798 3.567-9.34 3.567-.647 0-2.895.004-6.366.01-98.687.184-121.95-.037-124.09-.256-2.97-.3-5.003-1.32-6.969-2.307-1.867-.938-3.63-1.824-5.808-1.824-4.331 0-6.847 2.322-8.87 4.187-1.72 1.588-3.08 2.842-5.254 2.842-2.84 0-4.136-1.338-5.776-3.031-1.737-1.793-3.898-4.024-8.12-4.024-4.226 0-6.482 2.155-8.472 4.057-1.774 1.695-3.176 3.033-5.862 3.033-2.453 0-3.913-1.462-5.604-3.155-1.862-1.865-3.972-3.979-7.552-3.979-3.97 0-6.491 2.38-8.517 4.291-1.426 1.345-2.656 2.506-4.12 2.796-2.255.449-5.661-1.532-6.785-2.334a1.633 1.633 0 1 0-1.905 2.656c.473.339 4.31 3.01 8.001 3.01.447 0 .892-.039 1.328-.126Zm-34.128-14.4c-1.094-1.025-1.816-.246-3.388.174-1.575.43-1.33-1.689-.971-2.897.367-1.217 2.845-4.062 3.685-5.025.858-.963 1.698-2.66.245-4.84-1.449-2.18-5.865-.053-9.191 1.094-3.87 1.33-10.776 3.388-14.526 4.473-3.751 1.094-15.494 5.322-20.453 6.775-.465.137-1.146.291-1.996.46a9.724 9.724 0 0 0-1.512-5.844l.037-.026c6.123-4.297 9.507-15.178 9.879-17.462.359-2.285-.189-5.218-.189-5.218s3.384-1.55 5.406-3.93c1.321-1.567 6.298-6.854 7.405-7.677 1.085-.823 5.847-3.291 9.138-5.663 3.292-2.372 4.299-3.02 7.318-5.952 3.02-2.924 4.018-5.568 2.01-6.758-2.01-1.19-9.599.735-13.897 2.1-4.298 1.375-16.46 7.047-18.933 8.133-2.469 1.103-7.773 4.385-9.323 5.13-1.558.726-1.558-.193-1.558-.193.731-.727 7.93-8.01 10.062-9.69 2.56-2.005 5.576-3.738 9.502-6.575 3.93-2.844 7.152-5.48 8.696-7.86 1.826-2.836-.1-3.939-2.472-4.123-2.372-.184-10.233 2.197-15.726 4.482-5.492 2.285-17.38 10.058-20.11 12.158-2.758 2.101-5.494 5.034-6.785 6.583-.54.664-1.152 1.66-1.789 2.625-1.202-.773-2.68-1.344-4.417-1.522-3.358-.355-5.516 1.924-6.39 3.72-2.56-.172-4.912.588-6.333 1.585-1.825 1.269-3.375 3.746-4.933 6.854-1.553 3.107-1.094 5.479-.096 8.683a7.33 7.33 0 0 0 1.024 2.01c-.03.027-.067.067-.096.09 0 0-2.163 1.366-4.1 2.692a12.885 12.885 0 0 0-.933-.407c-1.917-.735-3.659-.91-5.852-.455-2.193.455-4.609 3.65-5.029 4.657-1.103 2.652-.28 5.033 1.917 7.038 1.247 1.146 3.86 1.7 6.488 1.525l.007.033c1.462 5.76 4.513 8.42 8.684 9.874.628.217 1.23.446 1.825.677-1.207.94-2.57 2.604-3.4 3.997-.36.61-.61 1.39-.781 2.127-11.36 2.87-21.287 9.157-25.113 13.91C3.195 97.558 0 105.287 0 114.241s8.127 17.665 16.597 21.665c9.19 4.35 21.655 6.049 33.761 5.2 12.089-.85 25.403-4.964 32.905-8.351 7.072-3.186 15.38-8.342 22.518-13.91 7.13-5.566 14.15-16.455 16.933-22.268 2.793-5.812 3.812-11.86 4.115-16.58.306-4.717-1.874-7.562-2.96-8.595ZM21.752 58.062s-3.563-1.55.184-3.93c0 0-.551 2.74-.184 3.93Zm92.673 5.418c1.151 0 2.608.718 2.293 2.539-.293 1.82-.954 4-1.199 4.657-.245.665-.118 2.783 1.27 3.694 1.575 1.033 3.33.84 3.33.84l-.49.797c-.302.472-2.596 4.831-2.596 4.831s-1.041-2.162-1.216-3.203c-.24-1.515-2.661-5.384-4.596-5.874 0 0 1.094-2.11 1.024-3.624-.057-1.514-.057-2.906-1.094-3.388 0 0 2.372-1.269 3.274-1.269ZM100.568 68.2c1.51-.613 3.27-1.699 3.694-1.699.429 0 1.392.543 1.632 1.208.25.665.307 2.127.307 2.127s-2.84-.254-3.935-.254c-1.085 0-5.865.07-5.865.07s2.661-.848 4.167-1.452Zm-6.285 4.297s2.42.175 3.502.123c1.098-.061 4.359.114 5.27.236.91.123 2.117.482 2.117.482l-.971 1.943c-.364.727-2.302 3.982-2.302 3.982s-2.596-1.444-3.865-1.934c-1.274-.481-3.75-1.146-3.75-1.146s.476-.727.42-1.567c-.062-.85-.42-2.119-.42-2.119Zm-2.066 7.134s5.327 2.18 5.935 2.486c.604.298 1.024.902.604 1.445-.42.551-3.387 3.694-3.633 4-.236.307-.42 1.024-1.085.175-.665-.84-4.587-4.228-4.963-4.473-.36-.245-.849-.359-.184-.726.665-.36 2.906-2.18 3.326-2.907ZM91.5 90.95s-2.048 2.18-3.575 3.203c-1.506 1.033-4.04 3.029-4.29 2.915-.192-.105-1.592-2.365-2.453-3.577.974-1.119 1.732-2.478 2.235-4.02.308-.423.543-.784.621-.998.43-1.156.092-3.388.762-2.907.617.447 5.79 3.992 6.7 5.384ZM88.043 72.2c.85 0 3.326.42 2.73 2.416 0 0-4.052-1.655-6.236-1.699 0 0 2.666-.717 3.506-.717Zm-9.743 2.556c.451-.184 3.996.682 5.41 1.12 1.41.447 3.913 1.532 4.28 1.663.363.114.815.246.123.64-.683.402-2.145 1.496-2.464 1.768-.32.288-.85.682-1.37.367-.27-.162-.675-.27-1.01-.34-1.22-2.565-3.573-4.127-5.104-4.91-.022-.187.072-.282.135-.308Zm.793 7.598c.792 1.698.967 4.604-.171 6.17-1.169 1.577-3.033 3.45-4.788 3.336-1.76-.123-3.878-1.34-3.756-2.547.123-1.208-.297-2.416-1.453-2.836-1.146-.43-3.326.534-4.534.901-1.217.36-2.84.49-3.633-.245-.787-.726-2.761-2.696-2.783-5.322-.017-2.057.722-2.548 1.326-3.204.609-.665 2.01-2.18 3.996-2.066 2.005.123 2.609 1.033 3.392 1.278.792.237 2.293.788 3.085-.183.78-.972.307-2.355.42-2.907.119-.542 1.025-2.477 1.458-3.326.42-.849.604-1.698 1.327-1.383 1.024.412.546 2.048.376 3.02-.193.972-1.589 5.926-2.25 7.073-.665 1.155-.123 2.24.547 2.538.661.307 1.388.193 2-.42.596-.604 1.75-2.057 1.865-3.204 0 0 2.783 1.637 3.576 3.327Zm0 17.55c-1.213.42-3.633 2.302-5.738 3.204-2.136.91-6.425 2.731-6.425 2.731s-.963-3.274-1.514-4.85c-.543-1.566-1.27-4.35-1.27-4.35s2.51-.838 4.059-1.454c2.306 2.266 6.103 2.494 9.686.773.545.877 1.272 2.2 1.434 2.493.258.43.98 1.033-.232 1.453Zm-29.526-.122c4.355-.613 10.281-1.996 10.281-1.996s1.155 3.029 1.703 4.78c.547 1.75 1.212 4.604 1.212 4.604s-3.156 1.322-5.147 1.68c-1.996.377-9.808 1.4-12.592 1.523-2.783.114-7.502.482-7.865.185-.363-.307-.114-1.707.114-3.152.25-1.453 1.34-6.355 1.76-7.38 0 0 6.18.36 10.534-.244Zm-8.775-4.114s2.722-5.322 3.751-6.294c0 0 2.718.307 4.963.184 2.228-.123 5.746-.481 5.746-.481s2.855 3.501 3.143 5.015c0 0-4.661 1.094-8.828 1.33-4.17.246-8.775.246-8.775.246Zm8.937-67.673c.613-.058 1.547.185 2.396.585a1.764 1.764 0 0 1-.286.141c-.676.251-1.703.666-2.8 1.179a10.565 10.565 0 0 0-1.405-.792c.66-.506 1.455-1.057 2.095-1.113ZM31.6 60.212c3.245-2.685 2.297-5.59 1.864-6.815-.103-.289-.337-.606-.653-.931a23.657 23.657 0 0 1 3.393-2.36c.079-.044.171-.116.255-.171a12.033 12.033 0 0 0 3.68 1.265c3.654.648 6.766-2.092 9.23-4.84 2.469-2.74 3.116-6.863 3.02-10.697a6.611 6.611 0 0 0-1.188-3.684c.029-.016.061-.04.09-.054a41.31 41.31 0 0 0 2.92-1.59c.536.825.924 1.874 1.465 3.227.749 1.83 3.296.359 3.567-1.19.214-1.165-.976-2.794-2.164-4.118.514-.473.956-.965 1.258-1.467 1.37-2.267 2.193-4.832 5.117-6.749 2.932-1.926 6.04-3.204 6.04-3.204s1.737 2.749 4.022 2.653c2.284-.088 3.567-.552 3.567-.552s-3.93 3.3-5.217 4.386c-1.282 1.103-2.548 2.1-3.011 3.203-.215.517-.85 2.443-1.454 3.195a1.091 1.091 0 0 0-.155.288c-1.533-.144-3.068.027-4.283.605-1.912.91-1.15 3.502-.332 4.5.051.063.099.11.149.165-1.556.254-3.008.997-4.745 2.119-3.633 2.355-5.444 6.005-6.119 8.587-.954 3.764 1.283 6.907 3.156 8.78l.093.086a6.75 6.75 0 0 1-.64 1.673c-.604 1.086-5.987 3.992-10.469 5.506-4.473 1.515-6.898.91-9.436.298-1.276-.304-2.309-1.249-3.02-2.114Zm2.04 7.086c-.083-.07-.156-.15-.236-.222 1.645.288 4.27.44 7.807.09 4.972-.481 10.05-2.6 12.351-4.289 1.795-1.33 4.355-3.755 5.436-4.543.323-.232.452-.642.472-1.113 1.73.51 3.746.707 5.887.326 5.02-.91 7.086-4.964 8.224-11.258 1.156-6.293-3.588-9.47-5.742-10.285-1.067-.407-2.008-.651-2.88-.76.43-.475.838-1.088 1.296-1.437.972-.744 1.855-.613 3.413.026.762.315 2.775 1.594 2.565 2.705-.271 1.4.893 2.311 1.655 2.871 1.453 1.104 3.41-1.47 2.556-4.114-.433-1.32-1.1-2.11-1.903-2.667.286-.121.582-.263.896-.431 2.38-1.287 11.152-5.944 13.437-6.592 0 0-.543 2.013.551 2.933 1.098.91 2.28 1.374 4.018 1.006 0 0-.727 1.182-2.189 2.469-1.462 1.278-6.766 6.766-7.501 7.038-.735.27-1.278.087-2.469.997-1.181.92-1.917 2.198-1.094 3.204.832 1.007.368 5.672-.188 7.222-.547 1.558-2.92 7.773-7.953 11.703-5.033 3.93-7.956 6.95-15.541 8.5-7.594 1.558-18.566.271-22.868-3.38Zm4.184 8.578c2.45-1.68 1.409-.893 4.534-.472 4.2.549 7.04.613 8.83.59 1.47.021 2.752-.02 3.582-.109.77-.08 1.738-.32 2.83-.671l-.075.07c-.434.255-.854.501-1.24.724-1.067.604-1.91 2.21-2.411 3.906a2.799 2.799 0 0 0-.198.689l-.015.134c-.24 1.054-.348 2.088-.287 2.886.015.196.04.39.077.58-.02.766-.02 1.302-.02 1.302s-5.926.184-9.979-.727c-3.773-.84-7.563-2.363-7.808-4.604-.14-1.374 1.208-3.633 2.18-4.298Zm-.91 11.8s1.452.91 2.844 1.094c0 0-1.506 2.302-2.237 3.265-.726.972-1.939 3.029-1.939 3.029s-2.477-.36-3.864-.85c-1.396-.48-3.042-1.636-3.042-1.636s2.25-1.69 3.825-2.6c1.567-.901 4.412-2.302 4.412-2.302Zm-11.555-2.171s1.339-.674 2.845-1.208c1.514-.543 3.33-1.155 3.685-.971.367.183 2.066 2.056 2.066 2.056s-7.257 4.114-7.874 4.78c0 0-1.388-1.085-.722-4.657Zm-.175 11.012s3.624 2.057 8.403 3.02c0 0-2.416 8.596-2.416 10.591 0 0-2.236-.481-2.84-.428-.609.06-8.601-1.629-9.266-2.714 0 0 2.788-7.93 6.119-10.469Zm8.713 28.562s-4.543-.184-6.85-.551c-2.292-.36-6.713-1.27-6.713-1.27s-1.755-3.694-1.996-5.926c-.245-2.24-.06-4.963-.06-4.963s3.518 1.208 6.057 1.628c2.538.42 6.713 1.033 6.713 1.033s.84 6.96 2.85 10.049Zm-19.97-32.195c1.934-1.812 5.69-4.482 5.69-4.482s.056 3.756 2.293 5.209c0 0-2.6 3.09-3.75 4.656-1.152 1.576-3.393 6.233-3.393 6.233s-4.714-3.388-4.963-6.171c0 0 2.18-3.624 4.123-5.445Zm-7.747 24.57s-.482-3.334-.482-4.717c0-1.4.114-4.911.534-6.539.43-1.637 1.34-3.939 1.34-3.939s1.628 5.453 5.742 7.502c0 0-.307 4.184.07 5.935.359 1.759 1.62 6.048 1.62 6.048s-8.036-3.204-8.824-4.29Zm12.771 15.792c-1.584-.972-8.898-4.963-10.412-10.224 0 0 5.567 3.143 6.955 3.572 1.396.42 2.118.359 2.783 1.26.674.91 4.963 6.477 6.907 7.756 0 0-4.662-1.401-6.233-2.364Zm24.624 4.535c-.727-.062-10.04-.123-11.074-.596-1.032-.49-7.562-5.147-8.775-8.35 0 0 10.342 1.811 12.885.962 0 0 5.694 6.408 6.78 7.073 1.094.674.91.972.184.91Zm18.635-6.05c-.73 1.76-1.873 4.72-2.49 4.903-.59.184-8.154.788-8.71.84-.538.07-.901.07-1.57-.482-.657-.542-5.865-4.113-7.2-7.317 0 0 6.175-.061 9.86-.665 3.694-.604 11.257-1.812 11.257-1.812s-.42 2.775-1.147 4.534Zm1.865-9.26s-6.95 1.82-12.159 2.057c-5.199.254-12.64.787-12.64.787s-1.269-2.897-1.64-5.199c-.364-2.302-.592-4.727-.592-4.727s8.758-.245 13.485-.604c7.327-.543 13.257-2.354 13.257-2.354s.666 8.595.29 10.04Zm18.347 2.31c-.297.903-1.453 4.412-2.477 5.078-1.024.656-6 2.783-7.808 3.51-1.825.726-6.963 2.057-6.963 2.057s1.15-2.425 1.816-4.718a44.067 44.067 0 0 0 1.024-4.482s4.184-1.085 7.143-2.18c2.968-1.085 8.167-3.326 8.167-3.326s-.595 3.151-.902 4.062Zm-6.057-5.628c-2.84.902-7.804 2.355-7.804 2.355s.118-3.87-.127-5.812c-.236-1.935-.534-4.719-.534-4.719s3.751-1.636 6.478-3.203c2.713-1.576 7.374-4.298 7.374-4.298s1.09 3.204 1.51 5.62c.434 2.424.49 6.722.49 6.722s-4.542 2.425-7.387 3.335Zm13.62-21.122c1.515-1.208 4.053-3.633 4.347-3.519.31.131 1.947 3.09 2.49 4.42.542 1.34 1.4 3.931 1.155 4.176-.245.245-2.556 3.151-3.396 3.992-.845.849-2.486 2.967-3.572 3.877-1.085.902-2.897 2.18-2.897 2.18s-.367-4.665-.792-6.477c-.42-1.813-1.632-5.804-1.632-5.804s2.783-1.637 4.297-2.845Zm8.106 16.938c-.788 3.029-2.539 6.416-2.539 6.416l-9.75 5.743s.91-1.987 1.216-3.257c.302-1.27.424-3.028.543-3.632.13-.613.245-1.996.245-1.996s3.147-2.119 5.138-4.246a2625.1 2625.1 0 0 1 5.699-5.987s.105 4.465-.552 6.96Zm-.245-23.538s1.4-1.33 2.482-2.477c1.098-1.147 2.42-3.029 2.42-3.029s1.943 1.208 3.09 2.845c1.155 1.628 2.293 3.204 2.048 3.51-.232.298-1.685 2.18-2.652 3.143-.972.971-3.388 3.58-3.388 3.58s-.726-2.18-1.632-3.887c-.91-1.68-2.368-3.685-2.368-3.685Zm12.583 9.62c-.048 1.944-1.081 9.016-1.807 9.865-.736.85-6.776 7.143-7.747 7.686 0 0 .603-1.34 1.203-3.082.613-1.759 1.711-9.505.731-11.992l6.661-7.738s1.025 3.327.959 5.261Zm-1.204-16.579c-1.207-1.453-3.387-3.142-3.387-3.142s.967-1.576 1.873-3.03c.91-1.452 2.057-3.51 2.057-3.51s1.637.552 2.302 2.005c.674 1.445 1.453 4.044 1.821 4.78.359.717 1.27 2.416 1.27 2.416l-3.393 4.297s-1.34-2.363-2.543-3.816Zm8.833 13.56c-.232.9-.42 1.811-.84 2.476-.43.675-3.458 5.27-3.458 5.27s.604-2.67.665-3.94c.057-1.268-.534-8.464-1.27-9.803l3.563-4.534s1.108 3.991 1.226 5.26c.114 1.278.359 4.36.114 5.27Zm5.033-14.278c-.07 1.138-1.576 7.44-2.062 8.579 0 0 .057-2.591-.188-3.747-.232-1.138-.779-3.991-1.514-5.077 0 0 1.033-1.882 1.633-2.783.608-.91 1.334-2.609 1.334-3.45 0 0 1.217.246 1.147 1.331-.062 1.086-.306 3.992-.35 5.147Zm-86.694 72.138c.236-2.18 5.4-2.924 11.24-3.362 5.846-.438 17.515-.298 20.154 0 2.63.289 6.71 1.024 6.858 2.626.149 1.61-3.274 2.573-5.41 3.213-3.466 1.041-12.885 2.127-17.957 2.188-4.827.061-15.178-1.9-14.885-4.665Z"/><path class="f" d="M35.924 39.497c.368-1.453 3.02-7.213 6.688-8.036 1.978-.455 5.75 0 6.302 4.115.56 4.175-1.645 8.411-3.571 10.057-1.922 1.646-4.482 3.099-7.677.727-3.007-2.233-2.022-5.708-1.742-6.863Z"/><path class="d" d="M39.885 40.232c.127 1.926 2.105 2.626 3.213 1.777 1.256-.99.862-4.92-.486-5.243-1.654-.394-2.854 1.374-2.727 3.466Z"/><path class="f" d="M63.602 38.184c1.572-.062 4.832 1.392 5.629 3.633.788 2.24.932 6.469-1.515 9.68-2.301 3.012-5.69 3.205-7.506 2.426-1.816-.797-4.354-3.274-4.538-5.629-.18-2.363.73-6.057 3.094-8.114 2.106-1.838 3.26-1.935 4.837-1.996Z"/><path class="d" d="M61.151 46.43c.14-1.374.78-2.854 1.73-3.318.945-.455 1.522-.49 2.135-.157.6.34.512 1.742.412 2.774-.093 1.033-.118 2.434-1.572 2.434-1.462 0-2.862-.359-2.705-1.733Z"/></g></g></svg>